<svg width="1024" height="1024" viewBox="0 0 1024 1024" xmlns="http://www.w3.org/2000/svg">
  <defs>
    <linearGradient id="bg" x1="0" y1="0" x2="1" y2="1">
      <stop offset="0" stop-color="#33A18F"/>
      <stop offset="1" stop-color="#4F86C6"/>
    </linearGradient>
  </defs>
  <rect width="1024" height="1024" fill="url(#bg)"/>
  <g transform="translate(192,175) scale(10)">
    <path d="M32 55C16 42 10 31 10 22.5 10 15.5 15.4 10 22 10c4.4 0 8.2 2.4 10 6 1.8-3.6 5.6-6 10-6 6.6 0 12 5.5 12 12.5C54 31 48 42 32 55Z" fill="#FFFFFF"/>
    <path d="M14 32 C18 26 24 26 28 31 C32 36 38 36 42 30 C45 26.5 49 27 51 29.5" fill="none" stroke="#2A8C7D" stroke-width="3.4" stroke-linecap="round" stroke-linejoin="round"/>
  </g>
</svg>
